<?xml version="1.0" encoding="UTF-8"?>
<svg id="Calque_9_-_copie" xmlns="http://www.w3.org/2000/svg" version="1.1" viewBox="0 0 290.1 94">
  <!-- Generator: Adobe Illustrator 29.3.1, SVG Export Plug-In . SVG Version: 2.1.0 Build 151)  -->
  <defs>
    <style>
      .st0 {
        font-family: Oxygen-Bold, Oxygen;
        font-size: 27.7px;
        font-weight: 700;
      }

      .st0, .st1, .st2 {
        fill: #222221;
      }

      .st1 {
        font-family: Oxygen-Regular, Oxygen;
        font-size: 18.5px;
      }

      .st3 {
        fill: #fff;
      }

      .st4 {
        fill: #c93f4f;
      }

      .st5 {
        fill: #2f3888;
      }
    </style>
  </defs>
  <g>
    <path class="st2" d="M54.2,35.3l-.3-.5c0,0,6-4,10.4.1l-.4.5c-.1-.1-3.6-2.9-9.6,0"/>
    <path class="st2" d="M40.4,35.2c-.1-.1-2.5-2.8-7.6-1.6l-.2-.6c.2,0,5.9-2,8.3,1.8l-.5.4Z"/>
    <path class="st2" d="M60.7,37.4c0,.9-.7,1.6-1.6,1.6s-1.6-.7-1.6-1.6.7-1.6,1.6-1.6,1.6.7,1.6,1.6"/>
    <path class="st2" d="M38.3,37.4c0,.9-.7,1.6-1.6,1.6s-1.6-.7-1.6-1.6.7-1.6,1.6-1.6,1.6.7,1.6,1.6"/>
    <path class="st2" d="M27.9,50.3l-.3-.4-.2.4c0,0-1.9,5.8-3,12.3-.3,1.8-8.4-9.3-8.4-9.3,0,0-3.2,0-2.7,2.1,1.9,7.2,9.6,23.3,14.2,19.7,3.1-2.4,6.1-17.3.3-24.9"/>
    <path class="st2" d="M20.7,0s0,.1.3.4c0,.1.2.3.3.5,0,0,.1.2.2.3,0,.1.1.2.2.4.7,1.4,1.1,2.9,1.4,4.4.3,2.2.2,4.3-.1,6.5-.2,1.3-.4,2.5-.7,3.8-.3,1.3-.6,2.6-.9,3.9-.3,1.3-.5,2.6-.8,3.9-.2,1.2-.2,1.9-.3,3.1,0,2.2.2,4.9,1.1,6.9.7,1.6,1,2.5,2.3,3.7.2.2.5.5.7.7.1,0,.2.2.3.3,0,0,.2.2.3.2.3.3.4.3.5.4,0,0,.7.5.7.5,0,0,0-.1-.3-.4,0,0,0-.1-.1-.2,0,0-.1-.2-.2-.3-.1-.2-.2-.4-.4-.7-.7-1.4-1.1-2.9-1.4-4.4-.3-2.2-.2-4.4.1-6.5.2-1.3.4-2.5.7-3.8.3-1.3.6-2.6.9-3.9.3-1.3.5-2.6.8-3.9.2-1.2.3-2.5.3-3.7,0-2.2-.3-4.3-1.1-6.4-.7-1.5-1.7-3-2.9-4.2-.1-.1-.2-.2-.4-.3-.1-.1-.2-.2-.3-.3-.2-.2-.4-.3-.6-.5"/>
    <path class="st2" d="M16.7,6.5s0,0,.1.3c0,0,0,.2.2.3,0,0,0,.1,0,.2,0,0,0,.1,0,.2.4.9.6,1.8.7,2.7.1,1.3,0,2.6-.3,3.9-.2.7-.3,1.5-.5,2.2-.2.8-.4,1.5-.7,2.3-.2.8-.4,1.5-.6,2.3-.2.7-.2,1.1-.3,1.9,0,1.3,0,2.9.4,4.1.4.9.5,1.5,1.2,2.3.1.2.3.3.4.4,0,0,.1.1.2.2,0,0,.1,0,.1.1.2.2.2.2.3.2,0,0,.4.3.4.3,0,0,0,0-.1-.3,0,0,0,0,0-.1,0,0,0-.1,0-.2,0-.1-.1-.3-.2-.4-.4-.9-.6-1.8-.6-2.7-.1-1.3,0-2.6.3-3.9.2-.7.3-1.5.5-2.2.2-.8.4-1.5.6-2.3.2-.8.4-1.5.6-2.3.1-.7.3-1.5.3-2.2,0-1.3,0-2.6-.5-3.8-.4-.9-.9-1.8-1.6-2.6,0,0-.1-.1-.2-.2,0,0-.1-.1-.2-.2-.1-.1-.2-.2-.3-.3"/>
    <path class="st2" d="M8.6,60.8h0c-.2.3-.6.2-.7,0l-2-2.4c-.2-.2-.1-.6,0-.7h0c.2-.3.6-.2.7,0l2,2.4c.2.2.1.6,0,.7"/>
    <path class="st2" d="M20.5,52.6c0-.1-.1-.3-.2-.4l-2.8-3.4c-.2-.2-.5-.2-.7,0l-9.8,8.1c-.2.2-.3.5,0,.7l2,2.4c.2.3.2.7,0,1,0,0-.1.1-.1.1-.2.2-.3.5,0,.7l2.1,2.6c.2.2.5.3.7,0l9.4-7.7c.2-.2.4-.6.3-.8l-.6-3.3Z"/>
    <path class="st2" d="M20.5,51.1h0c-.2.2-.5.2-.7,0l-1.8-2.1c-.2-.2-.1-.5,0-.7h0c.2-.2.5-.2.7,0l1.8,2.1c.2.2.1.5,0,.7"/>
    <path class="st2" d="M25.9,45.9v.2c-.1.1-.2.1-.3,0l-1.6-1.9c0-.1,0-.2,0-.2h.2c.1,0,.3,0,.4.1l1.1,1.4c0,0,.1.3,0,.4"/>
    <path class="st2" d="M25.6,46.4l-1.9-2.3c-.1-.1-.3-.2-.5,0l-4.3,3.5c-.1.1-.2.3,0,.5l1.9,2.3c.1.2.3.2.5,0l4.3-3.5c.2-.1.2-.3,0-.5M21,49.4l1-.9s.5-.8,1.1-1.2c.4-.4,1.2-.8,1.5-1l.4.5-3.7,3-.4-.5ZM23.5,45.1c-.2.3-.8,1-1.3,1.3-.6.5-1.4.8-1.4.8l-1,.9-.4-.5,3.7-3,.4.5ZM24.6,45.6l-4.4,3.6-.2-.2,4.4-3.6.2.2ZM24.7,45.8l-4.4,3.6h0c0,0,4.4-3.7,4.4-3.7h0Z"/>
    <path class="st2" d="M28.8,41.9c-.3-.3-.6-.5-1-.2-.6.5-.2.5-1.4,1.5-.4.3-.8.4-.9.5,0,0,0,0-.1,0l-.4.3s0,0,0,0l.5.6h0s.5-.4.5-.4l.2.3-.5.4.2.3s0,0,0,0l.4-.3s0,0,0-.1c0-.1.2-.5.6-.8,1.1-1,1.1-.6,1.7-1.1.3-.3.3-.7,0-1M28.6,42.4c0,0,0,.2,0,.3,0,0-.2,0-.3,0,0,0,0-.2,0-.3,0,0,.2,0,.3,0"/>
    <path class="st2" d="M101.1,90.2s-12.4-8.7-33.7-11.9h0c-7.1-1.1-15.2-1.4-24.2-.6-3.3.3-6.5.8-9.5,1.4h0C12.7,83.4,0,93.1,0,93.1c0,0,12.8-5.8,32.7-9h0c4.4-.7,10.2-1.3,15.2-1.6,6.7-.4,10.3-.1,16.5.5,18.9,2,36.7,7.1,36.7,7.1Z"/>
    <g>
      <path class="st5" d="M33.7,78.7C12.7,83,0,93.1,0,93.1,0,93.1,12.8,86.9,32.7,83.7l1-5Z"/>
      <path class="st3" d="M47.9,82.1c6.7-.4,10.3-.1,16.5.5l3-4.8c-7.1-1-15.2-1.4-24.2-.6-3.3.3-6.5.8-9.5,1.4l-1,5c4.4-.7,10.2-1.3,15.2-1.6"/>
      <path class="st4" d="M101.1,90.3s-12.4-9.2-33.7-12.3l-3,4.8c19,2,36.7,7.6,36.7,7.6"/>
    </g>
    <path class="st2" d="M78.3,31c-2.5-11.7-9.4-18.2-9.4-18.2l-.2-.2-.2.2c0,0-8.9,8-17.1,6.7-8.3-1.3-20.4-6.7-20.5-6.8l-.9-.4.5.8c15.5,26.1,15.4,35,15.4,35.1h.6c3.2-15.7,15.2-23,17-24,20.2,24.7-2.1,56.3-2.3,56.6l.5.4c18-22.1,19-39.5,16.7-50.3"/>
  </g>
  <text class="st1" transform="translate(120.6 67.8)"><tspan x="0" y="0">E-liquides français</tspan></text>
  <text class="st0" transform="translate(105.2 44.9)"><tspan x="0" y="0">BIO CONCEPT</tspan></text>
</svg>