<svg xmlns="http://www.w3.org/2000/svg" viewBox="0 0 560 130" role="img" aria-label="Drovar">
  <title>Drovar</title>
  <defs>
    <clipPath id="dClipL">
      <path d="M 4 4 H 60 A 51 51 0 0 1 60 106 H 4 Z"/>
    </clipPath>
  </defs>
  <g transform="translate(5, 10)">
    <!-- Outer D frame — gold -->
    <g fill="none" stroke="#c8a04a" stroke-width="8" stroke-linecap="square" stroke-linejoin="miter">
      <line x1="4" y1="0" x2="4" y2="110"/>
      <path d="M 4 4 H 60 A 51 51 0 0 1 60 106 H 4"/>
    </g>
    <!-- Interior elements — gold -->
    <g clip-path="url(#dClipL)">
      <g stroke="#c8a04a" stroke-width="4" stroke-linecap="square">
        <line x1="12" y1="24" x2="46" y2="24"/>
        <line x1="12" y1="46" x2="46" y2="46"/>
      </g>
      <g fill="#c8a04a">
        <rect x="14" y="12" width="6" height="12"/>
        <rect x="23" y="9" width="5" height="15"/>
        <rect x="31" y="14" width="7" height="10"/>
        <rect x="40" y="10" width="5" height="14"/>
        <rect x="14" y="34" width="5" height="12"/>
        <rect x="22" y="31" width="6" height="15"/>
        <rect x="31" y="36" width="5" height="10"/>
        <rect x="39" y="32" width="6" height="14"/>
      </g>
      <line x1="62" y1="4" x2="62" y2="38" stroke="#c8a04a" stroke-width="2"/>
      <path d="M 54 38 L 70 38 L 66 46 L 58 46 Z" fill="#c8a04a"/>
      <line x1="12" y1="68" x2="100" y2="68" stroke="#c8a04a" stroke-width="4" stroke-linecap="square"/>
      <rect x="14" y="92" width="30" height="14" fill="#c8a04a"/>
      <rect x="20" y="82" width="18" height="10" fill="#c8a04a"/>
      <rect x="22" y="76" width="10" height="6" fill="#c8a04a"/>
      <rect x="50" y="84" width="42" height="22" fill="#c8a04a"/>
      <line x1="14" y1="106" x2="92" y2="106" stroke="#c8a04a" stroke-width="3"/>
    </g>
    <!-- Wordmark — cream -->
    <text x="135" y="80" font-family="'Futura', 'Century Gothic', 'Helvetica Neue', Arial, sans-serif" font-size="72" font-weight="500" letter-spacing="10" fill="#f2ede4">DROVAR</text>
  </g>
</svg>
